<mxfile host="app.diagrams.net" modified="2020-07-21T09:01:10.059Z" agent="5.0 (Macintosh; Intel Mac OS X 10_14_6) AppleWebKit/537.36 (KHTML, like Gecko) Chrome/84.0.4147.89 Safari/537.36" etag="1h279ZI87O19GnC681xU" version="13.4.4" type="github">
  <diagram id="QwgGPqd0MF7SwD2WUHnU" name="Page-1">
    <mxGraphModel dx="1373" dy="2388" grid="1" gridSize="10" guides="1" tooltips="1" connect="1" arrows="1" fold="1" page="1" pageScale="1" pageWidth="1200" pageHeight="1600" math="0" shadow="0">
      <root>
        <mxCell id="0" />
        <mxCell id="1" parent="0" />
        <mxCell id="JEOs9_bkAiMNrlxeWsTZ-37" value="Push Based" style="rounded=1;whiteSpace=wrap;html=1;align=center;verticalAlign=top;" vertex="1" parent="1">
          <mxGeometry x="790" y="1072.5" width="360" height="155" as="geometry" />
        </mxCell>
        <mxCell id="JEOs9_bkAiMNrlxeWsTZ-36" value="Pull Based" style="rounded=1;whiteSpace=wrap;html=1;align=center;verticalAlign=top;" vertex="1" parent="1">
          <mxGeometry x="800" y="875" width="360" height="155" as="geometry" />
        </mxCell>
        <mxCell id="JEOs9_bkAiMNrlxeWsTZ-1" value="shared-stack" style="rounded=1;whiteSpace=wrap;html=1;verticalAlign=top;" vertex="1" parent="1">
          <mxGeometry x="410" y="360" width="310" height="230" as="geometry" />
        </mxCell>
        <mxCell id="JEOs9_bkAiMNrlxeWsTZ-2" value="cms-stack" style="rounded=1;whiteSpace=wrap;html=1;verticalAlign=top;" vertex="1" parent="1">
          <mxGeometry x="420" y="140" width="300" height="130" as="geometry" />
        </mxCell>
        <mxCell id="JEOs9_bkAiMNrlxeWsTZ-5" style="edgeStyle=orthogonalEdgeStyle;rounded=0;orthogonalLoop=1;jettySize=auto;html=1;exitX=1;exitY=0.5;exitDx=0;exitDy=0;" edge="1" parent="1" source="JEOs9_bkAiMNrlxeWsTZ-3" target="JEOs9_bkAiMNrlxeWsTZ-4">
          <mxGeometry relative="1" as="geometry" />
        </mxCell>
        <mxCell id="JEOs9_bkAiMNrlxeWsTZ-13" style="edgeStyle=orthogonalEdgeStyle;rounded=0;orthogonalLoop=1;jettySize=auto;html=1;exitX=0.5;exitY=1;exitDx=0;exitDy=0;entryX=0.004;entryY=0.387;entryDx=0;entryDy=0;entryPerimeter=0;" edge="1" parent="1" source="JEOs9_bkAiMNrlxeWsTZ-3" target="JEOs9_bkAiMNrlxeWsTZ-9">
          <mxGeometry relative="1" as="geometry" />
        </mxCell>
        <mxCell id="JEOs9_bkAiMNrlxeWsTZ-3" value="CMS" style="rounded=1;whiteSpace=wrap;html=1;" vertex="1" parent="1">
          <mxGeometry x="450" y="180" width="120" height="60" as="geometry" />
        </mxCell>
        <mxCell id="JEOs9_bkAiMNrlxeWsTZ-4" value="client" style="shape=cylinder;whiteSpace=wrap;html=1;boundedLbl=1;backgroundOutline=1;" vertex="1" parent="1">
          <mxGeometry x="620" y="170" width="60" height="80" as="geometry" />
        </mxCell>
        <mxCell id="JEOs9_bkAiMNrlxeWsTZ-7" style="edgeStyle=orthogonalEdgeStyle;rounded=0;orthogonalLoop=1;jettySize=auto;html=1;" edge="1" parent="1" source="JEOs9_bkAiMNrlxeWsTZ-6" target="JEOs9_bkAiMNrlxeWsTZ-3">
          <mxGeometry relative="1" as="geometry" />
        </mxCell>
        <mxCell id="JEOs9_bkAiMNrlxeWsTZ-6" value="Actor" style="shape=umlActor;verticalLabelPosition=bottom;verticalAlign=top;html=1;outlineConnect=0;" vertex="1" parent="1">
          <mxGeometry x="190" y="180" width="30" height="60" as="geometry" />
        </mxCell>
        <mxCell id="2" value="create client {&lt;br&gt;&amp;nbsp; &amp;nbsp; &amp;nbsp; email&lt;br&gt;&amp;nbsp; &amp;nbsp; &amp;nbsp; okta&lt;br&gt;&amp;nbsp; &amp;nbsp; &amp;nbsp; ...&lt;br&gt;metadata {&lt;br&gt;&lt;br&gt;}&lt;br&gt;&lt;div&gt;&lt;span&gt;}&lt;/span&gt;&lt;/div&gt;" style="text;html=1;align=left;verticalAlign=middle;resizable=0;points=[];autosize=1;" vertex="1" parent="1">
          <mxGeometry x="270" y="70" width="90" height="110" as="geometry" />
        </mxCell>
        <mxCell id="JEOs9_bkAiMNrlxeWsTZ-8" value="&lt;pre class=&quot;c-mrkdwn__pre&quot; style=&quot;box-sizing: inherit ; margin-top: 4px ; margin-bottom: 4px ; padding: 8px ; line-height: 1.50001 ; overflow-wrap: break-word ; word-break: normal ; border: 1px solid ; border-radius: 4px ; text-align: left&quot;&gt;&lt;b&gt;{&lt;span style=&quot;box-sizing: inherit&quot;&gt;&lt;br style=&quot;box-sizing: inherit&quot;&gt;&lt;/span&gt;  &quot;companyId&quot;: &quot;88888&quot;,&lt;span style=&quot;box-sizing: inherit&quot;&gt;&lt;br style=&quot;box-sizing: inherit&quot;&gt;&lt;/span&gt;  &quot;auth&quot;: { // for authentication method&lt;span style=&quot;box-sizing: inherit&quot;&gt;&lt;br style=&quot;box-sizing: inherit&quot;&gt;&lt;/span&gt;    &quot;type&quot; : &quot;okta-oidc&quot;,&lt;span style=&quot;box-sizing: inherit&quot;&gt;&lt;br style=&quot;box-sizing: inherit&quot;&gt;&lt;/span&gt;    &quot;ssoUrl&quot;: &quot;&lt;a target=&quot;_blank&quot; class=&quot;c-link&quot; href=&quot;http://okta-authn-url/&quot; style=&quot;box-sizing: inherit&quot;&gt;http://okta-authn-url&lt;/a&gt;&quot;,&lt;span style=&quot;box-sizing: inherit&quot;&gt;&lt;br style=&quot;box-sizing: inherit&quot;&gt;&lt;/span&gt;    &quot;oidc&quot;: { // oidc generic meta&lt;span style=&quot;box-sizing: inherit&quot;&gt;&lt;br style=&quot;box-sizing: inherit&quot;&gt;&lt;/span&gt;        &quot;issuer&quot;: &quot;http://....&quot;,&lt;span style=&quot;box-sizing: inherit&quot;&gt;&lt;br style=&quot;box-sizing: inherit&quot;&gt;&lt;/span&gt;        &quot;client_id&quot;: &quot;&quot;,&lt;span style=&quot;box-sizing: inherit&quot;&gt;&lt;br style=&quot;box-sizing: inherit&quot;&gt;&lt;/span&gt;        &quot;idp&quot;: &quot;&quot; // federation idp&lt;span style=&quot;box-sizing: inherit&quot;&gt;&lt;br style=&quot;box-sizing: inherit&quot;&gt;&lt;/span&gt;    }      &lt;span style=&quot;box-sizing: inherit&quot;&gt;&lt;br style=&quot;box-sizing: inherit&quot;&gt;&lt;/span&gt;  }&lt;span style=&quot;box-sizing: inherit&quot;&gt;&lt;br style=&quot;box-sizing: inherit&quot;&gt;&lt;/span&gt;}&lt;/b&gt;&lt;/pre&gt;" style="text;html=1;align=center;verticalAlign=middle;resizable=0;points=[];autosize=1;" vertex="1" parent="1">
          <mxGeometry x="150" y="-190" width="320" height="250" as="geometry" />
        </mxCell>
        <mxCell id="JEOs9_bkAiMNrlxeWsTZ-9" value="Kafka" style="rounded=1;whiteSpace=wrap;html=1;align=center;" vertex="1" parent="1">
          <mxGeometry x="770" y="280" width="120" height="60" as="geometry" />
        </mxCell>
        <mxCell id="JEOs9_bkAiMNrlxeWsTZ-14" style="edgeStyle=orthogonalEdgeStyle;rounded=0;orthogonalLoop=1;jettySize=auto;html=1;exitX=0.5;exitY=0;exitDx=0;exitDy=0;entryX=-0.005;entryY=0.637;entryDx=0;entryDy=0;entryPerimeter=0;" edge="1" parent="1" source="JEOs9_bkAiMNrlxeWsTZ-10" target="JEOs9_bkAiMNrlxeWsTZ-9">
          <mxGeometry relative="1" as="geometry" />
        </mxCell>
        <mxCell id="JEOs9_bkAiMNrlxeWsTZ-17" style="edgeStyle=orthogonalEdgeStyle;rounded=0;orthogonalLoop=1;jettySize=auto;html=1;exitX=0.5;exitY=1;exitDx=0;exitDy=0;entryX=0.5;entryY=0;entryDx=0;entryDy=0;" edge="1" parent="1" source="JEOs9_bkAiMNrlxeWsTZ-10" target="JEOs9_bkAiMNrlxeWsTZ-12">
          <mxGeometry relative="1" as="geometry" />
        </mxCell>
        <mxCell id="JEOs9_bkAiMNrlxeWsTZ-10" value="AMS" style="rounded=1;whiteSpace=wrap;html=1;" vertex="1" parent="1">
          <mxGeometry x="440" y="405" width="120" height="60" as="geometry" />
        </mxCell>
        <mxCell id="JEOs9_bkAiMNrlxeWsTZ-11" value="Client Info" style="rounded=1;whiteSpace=wrap;html=1;align=center;" vertex="1" parent="1">
          <mxGeometry x="570" y="405" width="120" height="60" as="geometry" />
        </mxCell>
        <mxCell id="JEOs9_bkAiMNrlxeWsTZ-12" value="client" style="shape=cylinder;whiteSpace=wrap;html=1;boundedLbl=1;backgroundOutline=1;" vertex="1" parent="1">
          <mxGeometry x="470" y="490" width="60" height="80" as="geometry" />
        </mxCell>
        <mxCell id="JEOs9_bkAiMNrlxeWsTZ-15" value="publish" style="text;html=1;align=center;verticalAlign=middle;resizable=0;points=[];autosize=1;" vertex="1" parent="1">
          <mxGeometry x="585" y="270" width="50" height="20" as="geometry" />
        </mxCell>
        <mxCell id="JEOs9_bkAiMNrlxeWsTZ-16" value="subscribe" style="text;html=1;align=center;verticalAlign=middle;resizable=0;points=[];autosize=1;" vertex="1" parent="1">
          <mxGeometry x="575" y="330" width="70" height="20" as="geometry" />
        </mxCell>
        <mxCell id="JEOs9_bkAiMNrlxeWsTZ-29" style="edgeStyle=orthogonalEdgeStyle;rounded=0;orthogonalLoop=1;jettySize=auto;html=1;entryX=0;entryY=0.5;entryDx=0;entryDy=0;" edge="1" parent="1" source="JEOs9_bkAiMNrlxeWsTZ-19" target="JEOs9_bkAiMNrlxeWsTZ-28">
          <mxGeometry relative="1" as="geometry" />
        </mxCell>
        <mxCell id="JEOs9_bkAiMNrlxeWsTZ-19" value="CMS" style="rounded=1;whiteSpace=wrap;html=1;" vertex="1" parent="1">
          <mxGeometry x="480" y="870" width="120" height="60" as="geometry" />
        </mxCell>
        <mxCell id="JEOs9_bkAiMNrlxeWsTZ-21" style="edgeStyle=orthogonalEdgeStyle;rounded=0;orthogonalLoop=1;jettySize=auto;html=1;entryX=0.5;entryY=1;entryDx=0;entryDy=0;" edge="1" parent="1" source="JEOs9_bkAiMNrlxeWsTZ-20" target="JEOs9_bkAiMNrlxeWsTZ-19">
          <mxGeometry relative="1" as="geometry" />
        </mxCell>
        <mxCell id="JEOs9_bkAiMNrlxeWsTZ-20" value="Client Info" style="rounded=1;whiteSpace=wrap;html=1;align=center;" vertex="1" parent="1">
          <mxGeometry x="480" y="1000" width="120" height="60" as="geometry" />
        </mxCell>
        <mxCell id="JEOs9_bkAiMNrlxeWsTZ-22" value="for route information" style="text;html=1;align=center;verticalAlign=middle;resizable=0;points=[];autosize=1;" vertex="1" parent="1">
          <mxGeometry x="600" y="990" width="120" height="20" as="geometry" />
        </mxCell>
        <mxCell id="JEOs9_bkAiMNrlxeWsTZ-25" style="edgeStyle=orthogonalEdgeStyle;rounded=0;orthogonalLoop=1;jettySize=auto;html=1;exitX=0.5;exitY=1;exitDx=0;exitDy=0;entryX=0.5;entryY=0;entryDx=0;entryDy=0;" edge="1" parent="1" source="JEOs9_bkAiMNrlxeWsTZ-23" target="JEOs9_bkAiMNrlxeWsTZ-24">
          <mxGeometry relative="1" as="geometry" />
        </mxCell>
        <mxCell id="JEOs9_bkAiMNrlxeWsTZ-23" value="AMS" style="rounded=1;whiteSpace=wrap;html=1;" vertex="1" parent="1">
          <mxGeometry x="290" y="1000" width="120" height="60" as="geometry" />
        </mxCell>
        <mxCell id="JEOs9_bkAiMNrlxeWsTZ-24" value="client" style="shape=cylinder;whiteSpace=wrap;html=1;boundedLbl=1;backgroundOutline=1;" vertex="1" parent="1">
          <mxGeometry x="320" y="1110" width="60" height="80" as="geometry" />
        </mxCell>
        <mxCell id="JEOs9_bkAiMNrlxeWsTZ-26" value="" style="endArrow=classic;html=1;entryX=0;entryY=0.5;entryDx=0;entryDy=0;" edge="1" parent="1" target="JEOs9_bkAiMNrlxeWsTZ-23">
          <mxGeometry width="50" height="50" relative="1" as="geometry">
            <mxPoint x="170" y="1030" as="sourcePoint" />
            <mxPoint x="170" y="990" as="targetPoint" />
          </mxGeometry>
        </mxCell>
        <mxCell id="JEOs9_bkAiMNrlxeWsTZ-27" value="for client information&lt;br&gt;for auth" style="text;html=1;align=center;verticalAlign=middle;resizable=0;points=[];autosize=1;" vertex="1" parent="1">
          <mxGeometry x="160" y="980" width="120" height="30" as="geometry" />
        </mxCell>
        <mxCell id="JEOs9_bkAiMNrlxeWsTZ-28" value="client" style="shape=cylinder;whiteSpace=wrap;html=1;boundedLbl=1;backgroundOutline=1;align=center;" vertex="1" parent="1">
          <mxGeometry x="685" y="860" width="60" height="80" as="geometry" />
        </mxCell>
        <mxCell id="JEOs9_bkAiMNrlxeWsTZ-33" value="Approach 1 : new service ?" style="rounded=1;whiteSpace=wrap;html=1;align=center;" vertex="1" parent="1">
          <mxGeometry x="830" y="930" width="120" height="60" as="geometry" />
        </mxCell>
        <mxCell id="JEOs9_bkAiMNrlxeWsTZ-34" value="Approach 2 : CMS as the source" style="rounded=1;whiteSpace=wrap;html=1;align=center;" vertex="1" parent="1">
          <mxGeometry x="980" y="930" width="120" height="60" as="geometry" />
        </mxCell>
        <mxCell id="JEOs9_bkAiMNrlxeWsTZ-39" style="edgeStyle=orthogonalEdgeStyle;rounded=0;orthogonalLoop=1;jettySize=auto;html=1;entryX=1;entryY=0.5;entryDx=0;entryDy=0;" edge="1" parent="1" source="JEOs9_bkAiMNrlxeWsTZ-35" target="JEOs9_bkAiMNrlxeWsTZ-38">
          <mxGeometry relative="1" as="geometry" />
        </mxCell>
        <mxCell id="JEOs9_bkAiMNrlxeWsTZ-35" value="X service&lt;br&gt;feature toggle" style="rounded=1;whiteSpace=wrap;html=1;align=center;" vertex="1" parent="1">
          <mxGeometry x="1000" y="1120" width="120" height="60" as="geometry" />
        </mxCell>
        <mxCell id="JEOs9_bkAiMNrlxeWsTZ-38" value="Kafka" style="rounded=1;whiteSpace=wrap;html=1;align=center;" vertex="1" parent="1">
          <mxGeometry x="835" y="1120.5" width="120" height="60" as="geometry" />
        </mxCell>
        <mxCell id="JEOs9_bkAiMNrlxeWsTZ-40" value="Runtime service/ Distributed Storage based" style="rounded=1;whiteSpace=wrap;html=1;align=center;verticalAlign=top;" vertex="1" parent="1">
          <mxGeometry x="790" y="1270" width="360" height="250" as="geometry" />
        </mxCell>
        <mxCell id="JEOs9_bkAiMNrlxeWsTZ-41" style="edgeStyle=orthogonalEdgeStyle;rounded=0;orthogonalLoop=1;jettySize=auto;html=1;entryX=1;entryY=0.5;entryDx=0;entryDy=0;" edge="1" parent="1" source="JEOs9_bkAiMNrlxeWsTZ-42" target="JEOs9_bkAiMNrlxeWsTZ-43">
          <mxGeometry relative="1" as="geometry" />
        </mxCell>
        <mxCell id="JEOs9_bkAiMNrlxeWsTZ-42" value="X service&lt;br&gt;feature toggle" style="rounded=1;whiteSpace=wrap;html=1;align=center;" vertex="1" parent="1">
          <mxGeometry x="1000" y="1317.5" width="120" height="60" as="geometry" />
        </mxCell>
        <mxCell id="JEOs9_bkAiMNrlxeWsTZ-43" value="Redis" style="rounded=1;whiteSpace=wrap;html=1;align=center;" vertex="1" parent="1">
          <mxGeometry x="835" y="1318" width="120" height="60" as="geometry" />
        </mxCell>
        <mxCell id="JEOs9_bkAiMNrlxeWsTZ-45" style="edgeStyle=orthogonalEdgeStyle;rounded=0;orthogonalLoop=1;jettySize=auto;html=1;exitX=0.5;exitY=0;exitDx=0;exitDy=0;entryX=0.5;entryY=1;entryDx=0;entryDy=0;" edge="1" parent="1" source="JEOs9_bkAiMNrlxeWsTZ-44" target="JEOs9_bkAiMNrlxeWsTZ-43">
          <mxGeometry relative="1" as="geometry" />
        </mxCell>
        <mxCell id="JEOs9_bkAiMNrlxeWsTZ-44" value="CMS / Other service" style="rounded=1;whiteSpace=wrap;html=1;align=center;" vertex="1" parent="1">
          <mxGeometry x="835" y="1420" width="120" height="60" as="geometry" />
        </mxCell>
        <mxCell id="JEOs9_bkAiMNrlxeWsTZ-46" value="write" style="text;html=1;align=center;verticalAlign=middle;resizable=0;points=[];autosize=1;" vertex="1" parent="1">
          <mxGeometry x="840" y="1385" width="40" height="20" as="geometry" />
        </mxCell>
      </root>
    </mxGraphModel>
  </diagram>
</mxfile>
